<mxfile host="app.diagrams.net" modified="2023-11-08T04:31:55.716Z" agent="Mozilla/5.0 (Macintosh; Intel Mac OS X 10_15_7) AppleWebKit/537.36 (KHTML, like Gecko) Chrome/119.0.0.0 Safari/537.36" version="22.0.8" etag="lpq3ZpF9zQloBB9so_J6" type="github">
  <diagram name="第 1 页" id="_NdxlwrmK5ZO4tSImE3y">
    <mxGraphModel>
      <root>
        <mxCell id="0" />
        <mxCell id="1" parent="0" />
      </root>
    </mxGraphModel>
  </diagram>
</mxfile>
